<svg width="30" height="30" viewBox="0 0 30 30" fill="none" xmlns="http://www.w3.org/2000/svg">
<path fill-rule="evenodd" clip-rule="evenodd" d="M8.99995 1.79995C5.07178 1.79995 1.79995 5.07178 1.79995 8.99995V21C1.79995 24.9281 5.07178 28.2 8.99995 28.2H21C24.9281 28.2 28.2 24.9281 28.2 21V8.99995C28.2 5.07178 24.9281 1.79995 21 1.79995H8.99995ZM0.199951 8.99995C0.199951 4.18812 4.18812 0.199951 8.99995 0.199951H21C25.8118 0.199951 29.7999 4.18812 29.7999 8.99995V21C29.7999 25.8118 25.8118 29.7999 21 29.7999H8.99995C4.18812 29.7999 0.199951 25.8118 0.199951 21V8.99995ZM8.19995 15C8.19995 11.2441 11.2441 8.19995 15 8.19995C18.7558 8.19995 21.8 11.2441 21.8 15C21.8 18.7558 18.7558 21.8 15 21.8C11.2441 21.8 8.19995 18.7558 8.19995 15ZM15 9.79995C12.1278 9.79995 9.79995 12.1278 9.79995 15C9.79995 17.8721 12.1278 20.2 15 20.2C17.8721 20.2 20.2 17.8721 20.2 15C20.2 12.1278 17.8721 9.79995 15 9.79995ZM25 6.49995C25 7.32795 24.3279 7.99995 23.5 7.99995C22.672 7.99995 22 7.32795 22 6.49995C22 5.67195 22.672 4.99995 23.5 4.99995C24.3279 4.99995 25 5.67195 25 6.49995Z" fill="black"/>
</svg>
