<svg width="34" height="34" viewBox="0 0 34 34" fill="none" xmlns="http://www.w3.org/2000/svg">
<path d="M31.402 1.15991H2.91785C1.94697 1.15991 1.15991 1.94697 1.15991 2.91785V31.402C1.15991 32.3729 1.94697 33.1599 2.91785 33.1599H31.402C32.3729 33.1599 33.1599 32.3729 33.1599 31.402V2.91785C33.1599 1.94697 32.3729 1.15991 31.402 1.15991Z" stroke="black" stroke-opacity="0.7"/>
<path d="M1.15991 24.1251L9.2282 17.2894L15.5526 23.0255L25.0496 11.2102L33.1039 23.0255" stroke="black" stroke-opacity="0.7"/>
<path d="M8.58401 11.0701C10.1041 11.0701 11.3365 9.83779 11.3365 8.31765C11.3365 6.7975 10.1041 5.56519 8.58401 5.56519C7.06386 5.56519 5.83154 6.7975 5.83154 8.31765C5.83154 9.83779 7.06386 11.0701 8.58401 11.0701Z" stroke="black" stroke-opacity="0.7"/>
</svg>
