<svg height="514" width="513" xmlns="http://www.w3.org/2000/svg"><g fill="none"><path d="M448.333 1h-384c-35.306 0-64 28.693-64 64v384c0 35.285 28.694 64 64 64h384c35.286 0 64-28.715 64-64V65c0-35.307-28.714-64-64-64z" fill="#039be5"/><path d="M116.158 243.355l259.843-100.33c12.06-4.363 22.594 2.946 18.686 21.209l.022-.023-44.243 208.734c-3.279 14.799-12.06 18.397-24.345 11.425l-67.375-49.726-32.497 31.352c-3.593 3.598-6.625 6.634-13.587 6.634l4.783-68.663 124.869-112.97c5.435-4.79-1.213-7.49-8.377-2.721L179.625 285.57l-66.521-20.782c-14.441-4.588-14.755-14.46 3.054-21.433z" fill="#fff"/></g></svg>