<svg height="512" width="513" xmlns="http://www.w3.org/2000/svg"><g fill="none"><path d="M448.333 0h-384c-35.306 0-64 28.693-64 64v384c0 35.285 28.694 64 64 64h384c35.286 0 64-28.715 64-64V64c0-35.307-28.714-64-64-64z" fill="#4b729f"/><path d="M383.814 272.69c-6.224-7.855-4.444-11.35 0-18.37.08-.08 51.464-71.03 56.758-95.091l.032-.016c2.63-8.769 0-15.213-12.722-15.213h-42.095c-10.716 0-15.657 5.53-18.304 11.718 0 0-21.432 51.264-51.752 84.495-9.786 9.602-14.31 12.68-19.652 12.68-2.63 0-6.721-3.078-6.721-11.846v-81.834c0-10.516-3-15.213-11.872-15.213h-66.19c-6.722 0-10.716 4.905-10.716 9.474 0 9.97 15.16 12.263 16.732 40.316v60.866c0 13.337-2.422 15.79-7.797 15.79-14.31 0-49.04-51.473-69.623-110.384-4.155-11.43-8.213-16.046-19.01-16.046h-42.11c-12.016 0-14.439 5.53-14.439 11.718 0 10.933 14.31 65.29 66.543 137.106 34.812 49.02 83.837 75.582 128.434 75.582 26.807 0 30.08-5.899 30.08-16.046 0-46.84-2.423-51.264 11.005-51.264 6.224 0 16.94 3.077 41.966 26.722 28.603 28.037 33.304 40.588 49.314 40.588h42.095c12 0 18.08-5.899 14.582-17.537-8.005-24.478-62.1-74.829-64.538-78.195z" fill="#fff"/></g></svg>