<svg height="513" width="514" xmlns="http://www.w3.org/2000/svg"><g fill="none"><path d="M438.093 73.912C389.453 26.893 325.453.333 257.293.333 61.667.333-61.17 212.28 36.515 380.877L.333 512.333l135.147-35.242c58.88 31.808 107.115 28.992 121.941 30.869 226.838 0 339.755-274.432 180.352-433.216z" fill="#eceff1"/><path d="M257.763 464.355l-.128-.022h-.342c-67.882 0-111.253-32.149-115.52-34.005l-80 20.8 21.44-77.76-5.098-8c-21.12-33.621-32.342-72.341-32.342-112.213 0-187.584 229.227-281.387 361.878-148.8 132.33 131.2 39.424 360-149.888 360z" fill="#4caf50"/><path d="M373.816 305.55l-.192 1.6c-6.421-3.2-37.696-18.497-43.52-20.609-13.077-4.842-9.387-.768-34.496 27.99-3.733 4.16-7.445 4.48-13.781 1.6-6.4-3.2-26.944-9.92-51.264-31.68-18.944-16.96-31.659-37.76-35.414-44.16-6.25-10.795 6.827-12.331 18.731-34.859 2.133-4.48 1.045-8-.533-11.179-1.6-3.2-14.336-34.56-19.67-47.061-5.12-12.459-10.389-10.88-14.336-10.88-12.288-1.067-21.269-.896-29.184 7.339-34.432 37.845-25.749 76.885 3.712 118.4 57.899 75.776 88.747 89.728 145.152 109.098 15.232 4.843 29.12 4.16 40.107 2.582 12.245-1.942 37.696-15.382 43.008-30.422 5.44-15.04 5.44-27.52 3.84-30.4-1.579-2.88-5.76-4.48-12.16-7.36z" fill="#fafafa"/></g></svg>